<?xml version="1.0" encoding="utf-8"?>
<svg version="1.1" id="Layer_1" xmlns="http://www.w3.org/2000/svg" xmlns:xlink="http://www.w3.org/1999/xlink" x="0px" y="0px"
	 viewBox="0 0 1000 1000" style="enable-background:new 0 0 1000 1000;" xml:space="preserve" width="300" height="300">
<style type="text/css">
	.st0{fill:#56565B;}
	.st1{fill:#EEF2F4;}
	.st2{fill:#FFC299;}
	.st3{fill:#FFFFFF;}
	.st4{opacity:0.34;fill:#333333;}
	.st5{fill:none;stroke:#170E10;stroke-width:10;stroke-linecap:round;stroke-linejoin:round;stroke-miterlimit:10;}
	.st6{fill:none;stroke:#260005;stroke-width:6;stroke-linejoin:round;stroke-miterlimit:10;}
	.st7{fill:#9DD7CE;}
	.st8{opacity:0.69;fill:#333333;}
	.st9{fill:#C0BFBF;}
	.st10{fill:none;stroke:#170E10;stroke-width:6;stroke-linejoin:round;stroke-miterlimit:10;}
	.st11{fill:#BD2B3E;}
	.st12{fill:none;stroke:#170E10;stroke-width:10;stroke-linejoin:round;stroke-miterlimit:10;}
	.st13{opacity:0.53;fill:#333333;}
	.st14{fill:none;stroke:#260005;stroke-width:4;stroke-linejoin:round;stroke-miterlimit:10;}
	.st15{opacity:0.36;fill:none;stroke:#FF99AA;stroke-width:4;stroke-linejoin:round;stroke-miterlimit:10;}
	.st16{fill:none;stroke:#170E10;stroke-width:8;stroke-linecap:round;stroke-linejoin:round;stroke-miterlimit:10;}
	.st17{fill:#FF6550;}
	.st18{fill:#E97E1C;}
	.st19{fill:#D44644;}
	.st20{opacity:0.55;fill:#FFFFFF;}
</style>


<rect id="XMLID_78_" x="540.4" y="519.6" className="st2" width="102.9" height="206.4"/>
<rect id="XMLID_96_" x="540.4" y="519.6" className="st3" width="102.9" height="206.4"/>
<rect id="XMLID_2_" x="540.4" y="519.6" className="st4" width="13.6" height="206.4"/>
<rect id="XMLID_26_" x="540.4" y="519.6" className="st5" width="102.9" height="206.4"/>
<g id="XMLID_32_">
	<g id="XMLID_130_">
		<line id="XMLID_131_" className="st6" x1="557.2" y1="681" x2="629.1" y2="681"/>
	</g>
	<g id="XMLID_127_">
		<line id="XMLID_128_" className="st6" x1="557.2" y1="655" x2="629.1" y2="655"/>
	</g>
	<g id="XMLID_124_">
		<line id="XMLID_125_" className="st6" x1="557.2" y1="629" x2="629.1" y2="629"/>
	</g>
	<g id="XMLID_121_">
		<line id="XMLID_122_" className="st6" x1="557.2" y1="603" x2="629.1" y2="603"/>
	</g>
	<g id="XMLID_118_">
		<line id="XMLID_119_" className="st6" x1="557.2" y1="577" x2="629.1" y2="577"/>
	</g>
	<g id="XMLID_115_">
		<line id="XMLID_116_" className="st6" x1="557.2" y1="551" x2="629.1" y2="551"/>
	</g>
</g>
<rect id="XMLID_75_" x="394.6" y="438" className="st7" width="148" height="288"/>
<rect id="XMLID_86_" x="394.6" y="438" className="st8" width="13.4" height="288"/>
<path id="XMLID_69_" className="st9" d="M362.6,277.7h-48v-36c0-6.6,5.4-12,12-12h24c6.6,0,12,5.4,12,12V277.7z"/>
<path id="XMLID_99_" className="st8" d="M339.3,229.7h-12.8c-6.6,0-12,5.4-12,12v36h12.8v-36C327.3,235.1,332.7,229.7,339.3,229.7z"/>
<path id="XMLID_10_" className="st5" d="M362.6,277.7h-48v-36c0-6.6,5.4-12,12-12h24c6.6,0,12,5.4,12,12V277.7z"/>
<line id="XMLID_12_" className="st5" x1="339" y1="230" x2="339" y2="183"/>
<line id="XMLID_126_" className="st5" x1="922" y1="726" x2="945.6" y2="726"/>
<line id="XMLID_139_" className="st5" x1="702.5" y1="726" x2="904.9" y2="726"/>
<line id="XMLID_138_" className="st5" x1="669" y1="726" x2="678" y2="726"/>
<line id="XMLID_120_" className="st5" x1="175.5" y1="726" x2="654.5" y2="726"/>
<line id="XMLID_5_" className="st5" x1="151.7" y1="726" x2="160.1" y2="726"/>
<line id="XMLID_25_" className="st5" x1="65.3" y1="726" x2="135" y2="726"/>
<rect id="XMLID_54_" x="282.6" y="345.1" className="st9" width="112" height="380.9"/>
<rect id="XMLID_74_" x="282.6" y="345.1" className="st8" width="11.4" height="380.9"/>
<rect id="XMLID_1_" x="282.6" y="345.1" className="st5" width="112" height="380.9"/>
<g id="XMLID_6_">
	<g>
		<g>
			<line id="XMLID_258_" className="st10" x1="302" y1="643" x2="375" y2="643"/>
			<line id="XMLID_257_" className="st10" x1="302" y1="655" x2="375" y2="655"/>
		</g>
	</g>
	<g>
		<g>
			<line id="XMLID_252_" className="st10" x1="302" y1="609" x2="375" y2="609"/>
			<line id="XMLID_251_" className="st10" x1="302" y1="621" x2="375" y2="621"/>
		</g>
	</g>
	<g>
		<g>
			<line id="XMLID_246_" className="st10" x1="302" y1="575" x2="375" y2="575"/>
			<line id="XMLID_245_" className="st10" x1="302" y1="587" x2="375" y2="587"/>
		</g>
	</g>
	<g>
		<g>
			<line id="XMLID_240_" className="st10" x1="302" y1="541" x2="375" y2="541"/>
			<line id="XMLID_239_" className="st10" x1="302" y1="553" x2="375" y2="553"/>
		</g>
	</g>
	<g>
		<g>
			<line id="XMLID_234_" className="st10" x1="302" y1="507" x2="375" y2="507"/>
			<line id="XMLID_233_" className="st10" x1="302" y1="519" x2="375" y2="519"/>
		</g>
	</g>
	<g>
		<g>
			<line id="XMLID_228_" className="st10" x1="302" y1="473" x2="375" y2="473"/>
			<line id="XMLID_227_" className="st10" x1="302" y1="485" x2="375" y2="485"/>
		</g>
	</g>
	<g>
		<g>
			<line id="XMLID_222_" className="st10" x1="302" y1="439" x2="375" y2="439"/>
			<line id="XMLID_221_" className="st10" x1="302" y1="451" x2="375" y2="451"/>
		</g>
	</g>
	<g>
		<g>
			<line id="XMLID_216_" className="st10" x1="302" y1="405" x2="375" y2="405"/>
			<line id="XMLID_215_" className="st10" x1="302" y1="417" x2="375" y2="417"/>
		</g>
	</g>
	<g>
		<g>
			<line id="XMLID_210_" className="st10" x1="302" y1="371" x2="375" y2="371"/>
			<line id="XMLID_209_" className="st10" x1="302" y1="383" x2="375" y2="383"/>
		</g>
	</g>
</g>
<path id="XMLID_63_" className="st9" d="M375.6,345.1h-74v-43c0-20.4,16.6-37,37-37h0c20.4,0,37,16.6,37,37V345.1z"/>
<path id="XMLID_98_" className="st8" d="M345.1,265.7c-2.1-0.4-4.3-0.6-6.5-0.6h0c-20.4,0-37,16.6-37,37v43h13v-43
	C314.6,283.9,327.7,268.8,345.1,265.7z"/>
<path id="XMLID_9_" className="st5" d="M375.6,345.1h-74v-43c0-20.4,16.6-37,37-37h0c20.4,0,37,16.6,37,37V345.1z"/>
<rect id="XMLID_11_" x="394.6" y="438" className="st5" width="148" height="288"/>
<rect id="XMLID_92_" x="394.6" y="418" className="st11" width="152.7" height="20"/>
<rect id="XMLID_13_" x="394.6" y="418" className="st5" width="153.4" height="20"/>
<rect id="XMLID_82_" x="314.6" y="674.5" className="st3" width="48" height="51.5"/>
<rect id="XMLID_95_" x="314.6" y="676.5" className="st4" width="48" height="10.5"/>
<rect id="XMLID_106_" x="314.6" y="687" className="st4" width="11.1" height="39"/>
<rect id="XMLID_14_" x="314.6" y="674.5" className="st5" width="48" height="51.5"/>
<g id="XMLID_16_">
	<g id="XMLID_760_">
		<g id="XMLID_774_">
			<g id="XMLID_785_">
				<line id="XMLID_786_" className="st12" x1="518" y1="670" x2="518" y2="685"/>
			</g>
			<g id="XMLID_783_">
				<line id="XMLID_784_" className="st12" x1="498" y1="670" x2="498" y2="685"/>
			</g>
			<g id="XMLID_781_">
				<line id="XMLID_782_" className="st12" x1="478" y1="670" x2="478" y2="685"/>
			</g>
			<g id="XMLID_779_">
				<line id="XMLID_780_" className="st12" x1="458" y1="670" x2="458" y2="685"/>
			</g>
			<g id="XMLID_777_">
				<line id="XMLID_778_" className="st12" x1="438" y1="670" x2="438" y2="685"/>
			</g>
			<g id="XMLID_775_">
				<line id="XMLID_776_" className="st12" x1="418" y1="670" x2="418" y2="685"/>
			</g>
		</g>
	</g>
	<g id="XMLID_720_">
		<g id="XMLID_734_">
			<g id="XMLID_745_">
				<line id="XMLID_746_" className="st12" x1="518" y1="630" x2="518" y2="645"/>
			</g>
			<g id="XMLID_743_">
				<line id="XMLID_744_" className="st12" x1="498" y1="630" x2="498" y2="645"/>
			</g>
			<g id="XMLID_741_">
				<line id="XMLID_742_" className="st12" x1="478" y1="630" x2="478" y2="645"/>
			</g>
			<g id="XMLID_739_">
				<line id="XMLID_740_" className="st12" x1="458" y1="630" x2="458" y2="645"/>
			</g>
			<g id="XMLID_737_">
				<line id="XMLID_738_" className="st12" x1="438" y1="630" x2="438" y2="645"/>
			</g>
			<g id="XMLID_735_">
				<line id="XMLID_736_" className="st12" x1="418" y1="630" x2="418" y2="645"/>
			</g>
		</g>
	</g>
	<g id="XMLID_680_">
		<g id="XMLID_694_">
			<g id="XMLID_705_">
				<line id="XMLID_706_" className="st12" x1="518" y1="590" x2="518" y2="605"/>
			</g>
			<g id="XMLID_703_">
				<line id="XMLID_704_" className="st12" x1="498" y1="590" x2="498" y2="605"/>
			</g>
			<g id="XMLID_701_">
				<line id="XMLID_702_" className="st12" x1="478" y1="590" x2="478" y2="605"/>
			</g>
			<g id="XMLID_699_">
				<line id="XMLID_700_" className="st12" x1="458" y1="590" x2="458" y2="605"/>
			</g>
			<g id="XMLID_697_">
				<line id="XMLID_698_" className="st12" x1="438" y1="590" x2="438" y2="605"/>
			</g>
			<g id="XMLID_695_">
				<line id="XMLID_696_" className="st12" x1="418" y1="590" x2="418" y2="605"/>
			</g>
		</g>
	</g>
	<g id="XMLID_640_">
		<g id="XMLID_654_">
			<g id="XMLID_665_">
				<line id="XMLID_666_" className="st12" x1="518" y1="550" x2="518" y2="565"/>
			</g>
			<g id="XMLID_663_">
				<line id="XMLID_664_" className="st12" x1="498" y1="550" x2="498" y2="565"/>
			</g>
			<g id="XMLID_661_">
				<line id="XMLID_662_" className="st12" x1="478" y1="550" x2="478" y2="565"/>
			</g>
			<g id="XMLID_659_">
				<line id="XMLID_660_" className="st12" x1="458" y1="550" x2="458" y2="565"/>
			</g>
			<g id="XMLID_657_">
				<line id="XMLID_658_" className="st12" x1="438" y1="550" x2="438" y2="565"/>
			</g>
			<g id="XMLID_655_">
				<line id="XMLID_656_" className="st12" x1="418" y1="550" x2="418" y2="565"/>
			</g>
		</g>
	</g>
	<g id="XMLID_600_">
		<g id="XMLID_614_">
			<g id="XMLID_625_">
				<line id="XMLID_626_" className="st12" x1="518" y1="510" x2="518" y2="525"/>
			</g>
			<g id="XMLID_623_">
				<line id="XMLID_624_" className="st12" x1="498" y1="510" x2="498" y2="525"/>
			</g>
			<g id="XMLID_621_">
				<line id="XMLID_622_" className="st12" x1="478" y1="510" x2="478" y2="525"/>
			</g>
			<g id="XMLID_619_">
				<line id="XMLID_620_" className="st12" x1="458" y1="510" x2="458" y2="525"/>
			</g>
			<g id="XMLID_617_">
				<line id="XMLID_618_" className="st12" x1="438" y1="510" x2="438" y2="525"/>
			</g>
			<g id="XMLID_615_">
				<line id="XMLID_616_" className="st12" x1="418" y1="510" x2="418" y2="525"/>
			</g>
		</g>
	</g>
	<g id="XMLID_560_">
		<g id="XMLID_574_">
			<g id="XMLID_585_">
				<line id="XMLID_586_" className="st12" x1="518" y1="470" x2="518" y2="485"/>
			</g>
			<g id="XMLID_583_">
				<line id="XMLID_584_" className="st12" x1="498" y1="470" x2="498" y2="485"/>
			</g>
			<g id="XMLID_581_">
				<line id="XMLID_582_" className="st12" x1="478" y1="470" x2="478" y2="485"/>
			</g>
			<g id="XMLID_579_">
				<line id="XMLID_580_" className="st12" x1="458" y1="470" x2="458" y2="485"/>
			</g>
			<g id="XMLID_577_">
				<line id="XMLID_578_" className="st12" x1="438" y1="470" x2="438" y2="485"/>
			</g>
			<g id="XMLID_575_">
				<line id="XMLID_576_" className="st12" x1="418" y1="470" x2="418" y2="485"/>
			</g>
		</g>
	</g>
</g>
<rect id="XMLID_76_" x="437.5" y="668.3" className="st2" width="61.5" height="57.7"/>
<rect id="XMLID_123_" x="437.5" y="668.3" className="st8" width="61.5" height="13.4"/>
<rect id="XMLID_117_" x="437.5" y="681.8" className="st8" width="12" height="44.2"/>
<rect id="XMLID_15_" x="437.5" y="668.3" className="st5" width="61.5" height="57.7"/>
<rect id="XMLID_79_" x="220.9" y="438" className="st11" width="60.6" height="288"/>
<rect id="XMLID_58_" x="220.9" y="438" className="st13" width="10.1" height="288"/>
<rect id="XMLID_33_" x="220.9" y="438" className="st5" width="60.6" height="288"/>
<g id="XMLID_41_">
	<g id="XMLID_457_">
		<g id="XMLID_468_">
			<g id="XMLID_475_">
				<line id="XMLID_477_" className="st14" x1="238" y1="630" x2="238" y2="645"/>
				<line id="XMLID_476_" className="st15" x1="238" y1="650" x2="238" y2="656"/>
			</g>
			<g id="XMLID_472_">
				<line id="XMLID_474_" className="st14" x1="251" y1="630" x2="251" y2="645"/>
				<line id="XMLID_473_" className="st15" x1="251" y1="650" x2="251" y2="656"/>
			</g>
			<g id="XMLID_469_">
				<line id="XMLID_471_" className="st14" x1="264" y1="630" x2="264" y2="645"/>
				<line id="XMLID_470_" className="st15" x1="264" y1="650" x2="264" y2="656"/>
			</g>
		</g>
	</g>
	<g id="XMLID_426_">
		<g id="XMLID_437_">
			<g id="XMLID_444_">
				<line id="XMLID_446_" className="st14" x1="238" y1="586" x2="238" y2="601"/>
				<line id="XMLID_445_" className="st15" x1="238" y1="606" x2="238" y2="612"/>
			</g>
			<g id="XMLID_441_">
				<line id="XMLID_443_" className="st14" x1="251" y1="586" x2="251" y2="601"/>
				<line id="XMLID_442_" className="st15" x1="251" y1="606" x2="251" y2="612"/>
			</g>
			<g id="XMLID_438_">
				<line id="XMLID_440_" className="st14" x1="264" y1="586" x2="264" y2="601"/>
				<line id="XMLID_439_" className="st15" x1="264" y1="606" x2="264" y2="612"/>
			</g>
		</g>
	</g>
	<g id="XMLID_395_">
		<g id="XMLID_406_">
			<g id="XMLID_413_">
				<line id="XMLID_415_" className="st14" x1="238" y1="542" x2="238" y2="557"/>
				<line id="XMLID_414_" className="st15" x1="238" y1="562" x2="238" y2="568"/>
			</g>
			<g id="XMLID_410_">
				<line id="XMLID_412_" className="st14" x1="251" y1="542" x2="251" y2="557"/>
				<line id="XMLID_411_" className="st15" x1="251" y1="562" x2="251" y2="568"/>
			</g>
			<g id="XMLID_407_">
				<line id="XMLID_409_" className="st14" x1="264" y1="542" x2="264" y2="557"/>
				<line id="XMLID_408_" className="st15" x1="264" y1="562" x2="264" y2="568"/>
			</g>
		</g>
	</g>
	<g id="XMLID_364_">
		<g id="XMLID_375_">
			<g id="XMLID_382_">
				<line id="XMLID_384_" className="st14" x1="238" y1="498" x2="238" y2="513"/>
				<line id="XMLID_383_" className="st15" x1="238" y1="518" x2="238" y2="524"/>
			</g>
			<g id="XMLID_379_">
				<line id="XMLID_381_" className="st14" x1="251" y1="498" x2="251" y2="513"/>
				<line id="XMLID_380_" className="st15" x1="251" y1="518" x2="251" y2="524"/>
			</g>
			<g id="XMLID_376_">
				<line id="XMLID_378_" className="st14" x1="264" y1="498" x2="264" y2="513"/>
				<line id="XMLID_377_" className="st15" x1="264" y1="518" x2="264" y2="524"/>
			</g>
		</g>
	</g>
	<g id="XMLID_333_">
		<g id="XMLID_344_">
			<g id="XMLID_351_">
				<line id="XMLID_353_" className="st14" x1="238" y1="454" x2="238" y2="469"/>
				<line id="XMLID_352_" className="st15" x1="238" y1="474" x2="238" y2="480"/>
			</g>
			<g id="XMLID_348_">
				<line id="XMLID_350_" className="st14" x1="251" y1="454" x2="251" y2="469"/>
				<line id="XMLID_349_" className="st15" x1="251" y1="474" x2="251" y2="480"/>
			</g>
			<g id="XMLID_345_">
				<line id="XMLID_347_" className="st14" x1="264" y1="454" x2="264" y2="469"/>
				<line id="XMLID_346_" className="st15" x1="264" y1="474" x2="264" y2="480"/>
			</g>
		</g>
	</g>
</g>
<rect id="XMLID_84_" x="242" y="678" className="st3" width="20" height="48"/>
<rect id="XMLID_37_" x="242" y="678" className="st5" width="20" height="48"/>
<line id="XMLID_42_" className="st16" x1="525" y1="371" x2="525" y2="415.7"/>
<line id="XMLID_46_" className="st16" x1="515.3" y1="380.3" x2="535.3" y2="380.3"/>
<line id="XMLID_47_" className="st16" x1="508.8" y1="393.3" x2="542.6" y2="393.3"/>
<line id="XMLID_48_" className="st5" x1="813" y1="726" x2="813" y2="549"/>
<line id="XMLID_51_" className="st5" x1="775" y1="559.2" x2="775" y2="549"/>
<path id="XMLID_31_" className="st5" d="M775,549c0-10.5,8.5-19,19-19s19,8.5,19,19"/>
<polygon id="XMLID_49_" className="st5" points="792.5,577.3 757.5,577.3 775,557 "/>
<line id="XMLID_56_" className="st5" x1="197.5" y1="726" x2="197.5" y2="551"/>
<line id="XMLID_55_" className="st5" x1="159.5" y1="559.9" x2="159.5" y2="551"/>
<path id="XMLID_53_" className="st5" d="M159.5,551c0-10.5,8.5-19,19-19s19,8.5,19,19"/>
<polygon id="XMLID_143_" className="st3" points="177,579.3 142,579.3 159.5,559 "/>
<polygon id="XMLID_52_" className="st5" points="177,579.3 142,579.3 159.5,559 "/>
<ellipse id="XMLID_85_" className="st17" cx="106.3" cy="633.8" rx="41" ry="56.9"/>
<path id="XMLID_88_" className="st13" d="M76.6,633.8c0-28.3,14.9-51.7,34.4-56.1c-2.2-0.5-4.4-0.8-6.6-0.8c-22.6,0-41,25.5-41,56.9
	c0,31.4,18.4,56.9,41,56.9c2.3,0,4.5-0.3,6.6-0.8C91.4,685.5,76.6,662.1,76.6,633.8z"/>
<ellipse id="XMLID_70_" className="st5" cx="106.3" cy="633.8" rx="41" ry="56.9"/>
<line id="XMLID_68_" className="st5" x1="107.8" y1="667.2" x2="119.6" y2="655.5"/>
<line id="XMLID_67_" className="st5" x1="106.3" y1="649.4" x2="93.8" y2="637.6"/>
<ellipse id="XMLID_72_" className="st18" cx="559.5" cy="668" rx="25" ry="34.4"/>
<path id="XMLID_89_" className="st13" d="M544.5,668c0-16.6,8.6-30.5,20-33.7c-1.6-0.4-3.3-0.7-5-0.7c-13.8,0-25,15.4-25,34.4
	s11.2,34.4,25,34.4c1.7,0,3.4-0.2,5-0.7C553.1,698.5,544.5,684.6,544.5,668z"/>
<ellipse id="XMLID_77_" className="st5" cx="559.5" cy="668" rx="25" ry="34.4"/>
<path id="XMLID_73_" className="st19" d="M762.8,635.2c3.8,35.5-23.1,49.8-37.7,48.9c-14.7,0.9-41.5-13.4-37.7-48.9
	c6.8-34.4,21.7-61,37.7-60.9C741,574.2,756,600.8,762.8,635.2z"/>
<path id="XMLID_90_" className="st13" d="M734.7,682.1c-14.7,0.9-41.5-13.4-37.7-48.9c5.6-28.6,17-51.9,29.8-58.8
	c-0.6-0.1-1.1-0.1-1.7-0.1c-16-0.2-31,26.4-37.7,60.9c-3.8,35.5,23.1,49.8,37.7,48.9c3.5,0.2,7.6-0.4,11.8-2
	C736.1,682.2,735.4,682.2,734.7,682.1z"/>
<path id="XMLID_62_" className="st5" d="M762.8,635.2c3.8,35.5-23.1,49.8-37.7,48.9c-14.7,0.9-41.5-13.4-37.7-48.9
	c6.8-34.4,21.7-61,37.7-60.9C741,574.2,756,600.8,762.8,635.2z"/>
<line id="XMLID_65_" className="st5" x1="725.1" y1="660.3" x2="737.7" y2="647.7"/>
<line id="XMLID_66_" className="st5" x1="725.1" y1="638.5" x2="711.3" y2="624.7"/>
<line id="XMLID_134_" className="st5" x1="410.5" y1="773" x2="516" y2="773"/>
<line id="XMLID_133_" className="st5" x1="531.8" y1="773" x2="542.6" y2="773"/>
<line id="XMLID_137_" className="st5" x1="555.3" y1="773" x2="557.4" y2="773"/>
<line id="XMLID_83_" className="st5" x1="359.4" y1="773" x2="385.5" y2="773"/>
<polyline id="XMLID_80_" className="st5" points="559.5,678.5 559.5,684.2 559.5,688.7 559.5,724.4 "/>
<line id="XMLID_64_" className="st5" x1="725.1" y1="612.5" x2="725.1" y2="726"/>
<line id="XMLID_71_" className="st5" x1="107.8" y1="623" x2="107.8" y2="726"/>
<ellipse id="XMLID_87_" className="st18" cx="863.9" cy="630.6" rx="41" ry="56.9"/>
<path id="XMLID_91_" className="st13" d="M832.9,630.6c0-29,15.7-53,36-56.4c-1.6-0.3-3.3-0.4-5-0.4c-22.6,0-41,25.5-41,56.9
	c0,31.4,18.4,56.9,41,56.9c1.7,0,3.4-0.2,5-0.4C848.6,683.6,832.9,659.6,832.9,630.6z"/>
<ellipse id="XMLID_50_" className="st5" cx="863.9" cy="630.6" rx="41" ry="56.9"/>
<line id="XMLID_59_" className="st5" x1="865.5" y1="669" x2="877.2" y2="657.3"/>
<line id="XMLID_60_" className="st5" x1="863.9" y1="651.1" x2="851.4" y2="639.4"/>
<line id="XMLID_57_" className="st5" x1="865.5" y1="624.7" x2="865.5" y2="725.6"/>
<line id="XMLID_93_" className="st10" x1="327.3" y1="308.7" x2="327.3" y2="345.1"/>
<line id="XMLID_94_" className="st10" x1="349" y1="308.7" x2="349" y2="345.1"/>
<circle id="XMLID_100_" className="st20" cx="106" cy="601" r="3.5"/>
<circle id="XMLID_103_" className="st20" cx="127.6" cy="639" r="4.5"/>
<circle id="XMLID_104_" className="st13" cx="124.1" cy="615.2" r="4.5"/>
<circle id="XMLID_102_" className="st13" cx="93.8" cy="621" r="3.3"/>
<circle id="XMLID_101_" className="st20" cx="556.4" cy="651.9" r="2.4"/>
<circle id="XMLID_105_" className="st13" cx="570.9" cy="661.4" r="3.4"/>
<circle id="XMLID_109_" className="st20" cx="723.6" cy="603" r="2.4"/>
<circle id="XMLID_111_" className="st20" cx="743.3" cy="631" r="3.4"/>
<circle id="XMLID_108_" className="st13" cx="738.1" cy="612.5" r="3.4"/>
<circle id="XMLID_110_" className="st13" cx="711.3" cy="649.5" r="3.4"/>
<circle id="XMLID_113_" className="st20" cx="879.1" cy="614.6" r="4.7"/>
<circle id="XMLID_114_" className="st13" cx="877.1" cy="639.3" r="3.4"/>
<circle id="XMLID_112_" className="st13" cx="860.9" cy="603.8" r="3.4"/>
<path id="XMLID_4_" className="st18" d="M712.8,726c0-11.5,9.3-20.7,20.7-20.7s20.7,9.3,20.7,20.7H712.8z"/>
<path id="XMLID_135_" className="st13" d="M739.6,706.2c-1.9-0.6-4-0.9-6.2-0.9c-11.5,0-20.7,9.3-20.7,20.7h12.3
	C725.1,716.7,731.2,708.8,739.6,706.2z"/>
<path id="XMLID_3_" className="st5" d="M712.8,726c0-11.5,9.3-20.7,20.7-20.7s20.7,9.3,20.7,20.7H712.8z"/>
<path id="XMLID_132_" className="st19" d="M739,726c0-16.5,13.3-29.8,29.8-29.8s29.8,13.3,29.8,29.8H739z"/>
<path id="XMLID_136_" className="st13" d="M774.5,696.8c-1.9-0.4-3.8-0.6-5.8-0.6c-16.5,0-29.8,13.3-29.8,29.8h11.5
	C750.5,711.5,760.8,699.4,774.5,696.8z"/>
<path id="XMLID_129_" className="st5" d="M739,726c0-16.5,13.3-29.8,29.8-29.8s29.8,13.3,29.8,29.8H739z"/>
</svg>
