<?xml version="1.0" encoding="utf-8"?>
<!-- Generator: Adobe Illustrator 23.1.1, SVG Export Plug-In . SVG Version: 6.00 Build 0)  -->
<svg version="1.1" id="Layer_1" xmlns="http://www.w3.org/2000/svg" xmlns:xlink="http://www.w3.org/1999/xlink" x="0px" y="0px"
	 viewBox="0 0 1000 1000" style="enable-background:new 0 0 1000 1000;" xml:space="preserve" width="100" height="100">
<style type="text/css">
	.st0{fill:#07B594;}
	.st1{fill:#EEF2F4;}
	.st2{fill:#0A7362;stroke:#0A7362;stroke-width:8;stroke-linecap:round;stroke-linejoin:round;stroke-miterlimit:10;}
	.st3{fill:none;stroke:#0A7362;stroke-width:8;stroke-linecap:round;stroke-linejoin:round;stroke-miterlimit:10;}
	.st4{fill:#102D3B;}
	.st5{fill:#4C5B60;}
	.st6{fill:#3E4B4F;}
	.st7{opacity:0.3;fill:#CCDDE5;enable-background:new    ;}
	.st8{opacity:0.11;clip-path:url(#XMLID_58_);}
	.st9{fill:none;stroke:#102D3B;stroke-width:8;stroke-linecap:round;stroke-linejoin:round;stroke-miterlimit:10;}
	.st10{fill:#FF9852;}
	.st11{fill:#D85639;}
	.st12{opacity:0.6;fill:none;stroke:#D85639;stroke-width:8;stroke-miterlimit:10;}
	.st13{fill:#FDBA5D;}
	.st14{opacity:0.61;fill:#D85639;enable-background:new    ;}
	.st15{fill:#B7C8CE;}
	.st16{fill:#EA3939;}
	.st17{opacity:0.62;fill:#EA3939;enable-background:new    ;}
	.st18{fill:#526066;}
	.st19{opacity:0.64;fill:#526066;enable-background:new    ;}
	.st20{opacity:0.3;fill:#526066;enable-background:new    ;}
	.st21{fill:#42708A;}
	.st22{opacity:0.73;fill:#CCDDE5;enable-background:new    ;}
	.st23{fill:#CCDDE5;}
	.st24{fill:#FFFFFF;}
	
		.st25{opacity:0.38;fill:none;stroke:#102D3B;stroke-width:8;stroke-linecap:round;stroke-linejoin:round;stroke-miterlimit:10;enable-background:new    ;}
</style>
<rect id="XMLID_18_" class="st0" width="0" height="0"/>

<g>
	<rect id="XMLID_49_" x="297" y="367" class="st2" width="32" height="151"/>
	<path id="XMLID_48_" class="st2" d="M329.4,620c-10.8,0-21.7,0-32.5,0c-2.1-22-2.1-45,0-68c10.8,0,21.7,0,32.5,0
		C331.5,575,331.5,598,329.4,620z"/>
	<path id="XMLID_47_" class="st2" d="M329.4,552c-10.8,0-21.7,0-32.5,0c6.7-10,6.7-23,0-34c10.8,0,21.7,0,32.5,0
		C322.7,529,322.7,542,329.4,552z"/>
	<path id="XMLID_46_" class="st2" d="M317.3,667c5.4-16,11.9-31,12.1-47h-32.5c0.2,16,6.7,31,12.1,47H317.3z"/>
	<rect id="XMLID_45_" x="309" y="667" class="st2" width="8" height="6"/>
	<line id="XMLID_44_" class="st3" x1="313" y1="674" x2="313" y2="687"/>
	<rect id="XMLID_43_" x="301" y="345" class="st2" width="24" height="22"/>
	<path id="XMLID_42_" class="st2" d="M322,345h-18v-25.7c0-3.5,3.2-6.3,6.7-6.3h5c3.5,0,6.3,2.8,6.3,6.3V345z"/>
	<rect id="XMLID_41_" x="309" y="381" class="st2" width="31" height="18"/>
	<polygon id="XMLID_40_" class="st2" points="340,460.3 329,445.8 329,399 340,399 	"/>
	<path id="XMLID_24_" class="st4" d="M322.4,547c-10.8,0-21.7,0-32.5,0c6.7-10,6.7-23,0-34c10.8,0,21.7,0,32.5,0
		C315.7,524,315.7,537,322.4,547z"/>
	<path id="XMLID_38_" class="st2" d="M674,694H398V298h276c9.9,0,18,7.8,18,17.7v360C692,685.7,683.9,694,674,694z"/>
	<path id="XMLID_36_" class="st2" d="M635,702h-14c-2.8,0-5-2.2-5-5V295c0-2.8,2.2-5,5-5h14c2.8,0,5,2.2,5,5v402
		C640,699.8,637.8,702,635,702z"/>
	<polygon id="XMLID_34_" class="st2" points="459,739.7 429,723 429,694 459,694 	"/>
	<path id="XMLID_19_" class="st5" d="M664,679H388V283h276c9.9,0,18,7.8,18,17.7v360C682,670.7,673.9,679,664,679z"/>
	<rect id="XMLID_54_" x="617" y="283" class="st6" width="24" height="396"/>
	<rect id="XMLID_50_" x="388" y="283" class="st7" width="17" height="396"/>
	<g>
		<defs>
			<path id="XMLID_7_" d="M664,679H388V283h276c9.9,0,18,7.8,18,17.7v360C682,670.7,673.9,679,664,679z"/>
		</defs>
		<clipPath id="XMLID_58_">
			<use xlink:href="#XMLID_7_"  style="overflow:visible;"/>
		</clipPath>
		<g id="XMLID_57_" class="st8">
			<g>
				<g>
					<path class="st4" d="M359.4,983.6c-0.4,0-0.8-0.1-1.1-0.4c-0.6-0.6-0.6-1.5,0-2.1l344.4-344.3c0.6-0.6,1.5-0.6,2.1,0
						s0.6,1.5,0,2.1L360.5,983.2C360.2,983.5,359.8,983.6,359.4,983.6z"/>
				</g>
			</g>
			<g>
				<g>
					<path class="st4" d="M359.4,969.6c-0.4,0-0.8-0.1-1.1-0.4c-0.6-0.6-0.6-1.5,0-2.1l344.4-344.3c0.6-0.6,1.5-0.6,2.1,0
						s0.6,1.5,0,2.1L360.5,969.2C360.2,969.5,359.8,969.6,359.4,969.6z"/>
				</g>
			</g>
			<g>
				<g>
					<path class="st4" d="M359.4,955.6c-0.4,0-0.8-0.1-1.1-0.4c-0.6-0.6-0.6-1.5,0-2.1l344.4-344.3c0.6-0.6,1.5-0.6,2.1,0
						s0.6,1.5,0,2.1L360.5,955.2C360.2,955.5,359.8,955.6,359.4,955.6z"/>
				</g>
			</g>
			<g>
				<g>
					<path class="st4" d="M359.4,941.6c-0.4,0-0.8-0.1-1.1-0.4c-0.6-0.6-0.6-1.5,0-2.1l344.4-344.3c0.6-0.6,1.5-0.6,2.1,0
						s0.6,1.5,0,2.1L360.5,941.2C360.2,941.5,359.8,941.6,359.4,941.6z"/>
				</g>
			</g>
			<g>
				<g>
					<path class="st4" d="M359.4,927.6c-0.4,0-0.8-0.1-1.1-0.4c-0.6-0.6-0.6-1.5,0-2.1l344.4-344.3c0.6-0.6,1.5-0.6,2.1,0
						s0.6,1.5,0,2.1L360.5,927.2C360.2,927.5,359.8,927.6,359.4,927.6z"/>
				</g>
			</g>
			<g>
				<g>
					<path class="st4" d="M359.4,913.6c-0.4,0-0.8-0.1-1.1-0.4c-0.6-0.6-0.6-1.5,0-2.1l344.4-344.3c0.6-0.6,1.5-0.6,2.1,0
						s0.6,1.5,0,2.1L360.5,913.2C360.2,913.5,359.8,913.6,359.4,913.6z"/>
				</g>
			</g>
			<g>
				<g>
					<path class="st4" d="M359.4,899.6c-0.4,0-0.8-0.1-1.1-0.4c-0.6-0.6-0.6-1.5,0-2.1l344.4-344.3c0.6-0.6,1.5-0.6,2.1,0
						s0.6,1.5,0,2.1L360.5,899.2C360.2,899.5,359.8,899.6,359.4,899.6z"/>
				</g>
			</g>
			<g>
				<g>
					<path class="st4" d="M359.4,885.6c-0.4,0-0.8-0.1-1.1-0.4c-0.6-0.6-0.6-1.5,0-2.1l344.4-344.3c0.6-0.6,1.5-0.6,2.1,0
						s0.6,1.5,0,2.1L360.5,885.2C360.2,885.5,359.8,885.6,359.4,885.6z"/>
				</g>
			</g>
			<g>
				<g>
					<path class="st4" d="M359.4,871.6c-0.4,0-0.8-0.1-1.1-0.4c-0.6-0.6-0.6-1.5,0-2.1l344.4-344.3c0.6-0.6,1.5-0.6,2.1,0
						s0.6,1.5,0,2.1L360.5,871.2C360.2,871.5,359.8,871.6,359.4,871.6z"/>
				</g>
			</g>
			<g>
				<g>
					<path class="st4" d="M359.4,857.6c-0.4,0-0.8-0.1-1.1-0.4c-0.6-0.6-0.6-1.5,0-2.1l344.4-344.3c0.6-0.6,1.5-0.6,2.1,0
						s0.6,1.5,0,2.1L360.5,857.2C360.2,857.5,359.8,857.6,359.4,857.6z"/>
				</g>
			</g>
			<g>
				<g>
					<path class="st4" d="M359.4,843.6c-0.4,0-0.8-0.1-1.1-0.4c-0.6-0.6-0.6-1.5,0-2.1l344.4-344.3c0.6-0.6,1.5-0.6,2.1,0
						s0.6,1.5,0,2.1L360.5,843.2C360.2,843.5,359.8,843.6,359.4,843.6z"/>
				</g>
			</g>
			<g>
				<g>
					<path class="st4" d="M359.4,829.6c-0.4,0-0.8-0.1-1.1-0.4c-0.6-0.6-0.6-1.5,0-2.1l344.4-344.3c0.6-0.6,1.5-0.6,2.1,0
						s0.6,1.5,0,2.1L360.5,829.2C360.2,829.5,359.8,829.6,359.4,829.6z"/>
				</g>
			</g>
			<g>
				<g>
					<path class="st4" d="M359.4,815.6c-0.4,0-0.8-0.1-1.1-0.4c-0.6-0.6-0.6-1.5,0-2.1l344.4-344.3c0.6-0.6,1.5-0.6,2.1,0
						s0.6,1.5,0,2.1L360.5,815.2C360.2,815.5,359.8,815.6,359.4,815.6z"/>
				</g>
			</g>
			<g>
				<g>
					<path class="st4" d="M359.4,801.6c-0.4,0-0.8-0.1-1.1-0.4c-0.6-0.6-0.6-1.5,0-2.1l344.4-344.3c0.6-0.6,1.5-0.6,2.1,0
						s0.6,1.5,0,2.1L360.5,801.2C360.2,801.5,359.8,801.6,359.4,801.6z"/>
				</g>
			</g>
			<g>
				<g>
					<path class="st4" d="M359.4,787.6c-0.4,0-0.8-0.1-1.1-0.4c-0.6-0.6-0.6-1.5,0-2.1l344.4-344.3c0.6-0.6,1.5-0.6,2.1,0
						s0.6,1.5,0,2.1L360.5,787.2C360.2,787.5,359.8,787.6,359.4,787.6z"/>
				</g>
			</g>
			<g>
				<g>
					<path class="st4" d="M359.4,773.6c-0.4,0-0.8-0.1-1.1-0.4c-0.6-0.6-0.6-1.5,0-2.1l344.4-344.3c0.6-0.6,1.5-0.6,2.1,0
						s0.6,1.5,0,2.1L360.5,773.2C360.2,773.5,359.8,773.6,359.4,773.6z"/>
				</g>
			</g>
			<g>
				<g>
					<path class="st4" d="M359.4,759.6c-0.4,0-0.8-0.1-1.1-0.4c-0.6-0.6-0.6-1.5,0-2.1l344.4-344.3c0.6-0.6,1.5-0.6,2.1,0
						s0.6,1.5,0,2.1L360.5,759.2C360.2,759.5,359.8,759.6,359.4,759.6z"/>
				</g>
			</g>
			<g>
				<g>
					<path class="st4" d="M359.4,745.6c-0.4,0-0.8-0.1-1.1-0.4c-0.6-0.6-0.6-1.5,0-2.1l344.4-344.3c0.6-0.6,1.5-0.6,2.1,0
						s0.6,1.5,0,2.1L360.5,745.2C360.2,745.5,359.8,745.6,359.4,745.6z"/>
				</g>
			</g>
			<g>
				<g>
					<path class="st4" d="M359.4,731.6c-0.4,0-0.8-0.1-1.1-0.4c-0.6-0.6-0.6-1.5,0-2.1l344.4-344.3c0.6-0.6,1.5-0.6,2.1,0
						s0.6,1.5,0,2.1L360.5,731.2C360.2,731.5,359.8,731.6,359.4,731.6z"/>
				</g>
			</g>
			<g>
				<g>
					<path class="st4" d="M359.4,717.6c-0.4,0-0.8-0.1-1.1-0.4c-0.6-0.6-0.6-1.5,0-2.1l344.4-344.3c0.6-0.6,1.5-0.6,2.1,0
						s0.6,1.5,0,2.1L360.5,717.2C360.2,717.5,359.8,717.6,359.4,717.6z"/>
				</g>
			</g>
			<g>
				<g>
					<path class="st4" d="M359.4,703.6c-0.4,0-0.8-0.1-1.1-0.4c-0.6-0.6-0.6-1.5,0-2.1l344.4-344.3c0.6-0.6,1.5-0.6,2.1,0
						s0.6,1.5,0,2.1L360.5,703.2C360.2,703.5,359.8,703.6,359.4,703.6z"/>
				</g>
			</g>
			<g>
				<g>
					<path class="st4" d="M359.4,689.6c-0.4,0-0.8-0.1-1.1-0.4c-0.6-0.6-0.6-1.5,0-2.1l344.4-344.3c0.6-0.6,1.5-0.6,2.1,0
						s0.6,1.5,0,2.1L360.5,689.2C360.2,689.5,359.8,689.6,359.4,689.6z"/>
				</g>
			</g>
			<g>
				<g>
					<path class="st4" d="M359.4,675.6c-0.4,0-0.8-0.1-1.1-0.4c-0.6-0.6-0.6-1.5,0-2.1l344.4-344.3c0.6-0.6,1.5-0.6,2.1,0
						s0.6,1.5,0,2.1L360.5,675.2C360.2,675.5,359.8,675.6,359.4,675.6z"/>
				</g>
			</g>
			<g>
				<g>
					<path class="st4" d="M359.4,661.6c-0.4,0-0.8-0.1-1.1-0.4c-0.6-0.6-0.6-1.5,0-2.1l344.4-344.3c0.6-0.6,1.5-0.6,2.1,0
						s0.6,1.5,0,2.1L360.5,661.2C360.2,661.5,359.8,661.6,359.4,661.6z"/>
				</g>
			</g>
			<g>
				<g>
					<path class="st4" d="M359.4,647.6c-0.4,0-0.8-0.1-1.1-0.4c-0.6-0.6-0.6-1.5,0-2.1l344.4-344.3c0.6-0.6,1.5-0.6,2.1,0
						s0.6,1.5,0,2.1L360.5,647.2C360.2,647.5,359.8,647.6,359.4,647.6z"/>
				</g>
			</g>
			<g>
				<g>
					<path class="st4" d="M359.4,633.6c-0.4,0-0.8-0.1-1.1-0.4c-0.6-0.6-0.6-1.5,0-2.1l344.4-344.3c0.6-0.6,1.5-0.6,2.1,0
						s0.6,1.5,0,2.1L360.5,633.2C360.2,633.5,359.8,633.6,359.4,633.6z"/>
				</g>
			</g>
			<g>
				<g>
					<path class="st4" d="M359.4,619.6c-0.4,0-0.8-0.1-1.1-0.4c-0.6-0.6-0.6-1.5,0-2.1l344.4-344.3c0.6-0.6,1.5-0.6,2.1,0
						s0.6,1.5,0,2.1L360.5,619.2C360.2,619.5,359.8,619.6,359.4,619.6z"/>
				</g>
			</g>
			<g>
				<g>
					<path class="st4" d="M359.4,605.6c-0.4,0-0.8-0.1-1.1-0.4c-0.6-0.6-0.6-1.5,0-2.1l344.4-344.3c0.6-0.6,1.5-0.6,2.1,0
						s0.6,1.5,0,2.1L360.5,605.2C360.2,605.5,359.8,605.6,359.4,605.6z"/>
				</g>
			</g>
			<g>
				<g>
					<path class="st4" d="M359.4,591.6c-0.4,0-0.8-0.1-1.1-0.4c-0.6-0.6-0.6-1.5,0-2.1l344.4-344.3c0.6-0.6,1.5-0.6,2.1,0
						s0.6,1.5,0,2.1L360.5,591.2C360.2,591.5,359.8,591.6,359.4,591.6z"/>
				</g>
			</g>
			<g>
				<g>
					<path class="st4" d="M359.4,577.6c-0.4,0-0.8-0.1-1.1-0.4c-0.6-0.6-0.6-1.5,0-2.1l344.4-344.3c0.6-0.6,1.5-0.6,2.1,0
						s0.6,1.5,0,2.1L360.5,577.2C360.2,577.5,359.8,577.6,359.4,577.6z"/>
				</g>
			</g>
			<g>
				<g>
					<path class="st4" d="M359.4,563.6c-0.4,0-0.8-0.1-1.1-0.4c-0.6-0.6-0.6-1.5,0-2.1l344.4-344.3c0.6-0.6,1.5-0.6,2.1,0
						s0.6,1.5,0,2.1L360.5,563.2C360.2,563.5,359.8,563.6,359.4,563.6z"/>
				</g>
			</g>
			<g>
				<g>
					<path class="st4" d="M359.4,549.6c-0.4,0-0.8-0.1-1.1-0.4c-0.6-0.6-0.6-1.5,0-2.1l344.4-344.3c0.6-0.6,1.5-0.6,2.1,0
						s0.6,1.5,0,2.1L360.5,549.2C360.2,549.5,359.8,549.6,359.4,549.6z"/>
				</g>
			</g>
			<g>
				<g>
					<path class="st4" d="M359.4,535.6c-0.4,0-0.8-0.1-1.1-0.4c-0.6-0.6-0.6-1.5,0-2.1l344.4-344.3c0.6-0.6,1.5-0.6,2.1,0
						s0.6,1.5,0,2.1L360.5,535.2C360.2,535.5,359.8,535.6,359.4,535.6z"/>
				</g>
			</g>
			<g>
				<g>
					<path class="st4" d="M359.4,521.6c-0.4,0-0.8-0.1-1.1-0.4c-0.6-0.6-0.6-1.5,0-2.1l344.4-344.3c0.6-0.6,1.5-0.6,2.1,0
						s0.6,1.5,0,2.1L360.5,521.2C360.2,521.5,359.8,521.6,359.4,521.6z"/>
				</g>
			</g>
			<g>
				<g>
					<path class="st4" d="M359.4,507.6c-0.4,0-0.8-0.1-1.1-0.4c-0.6-0.6-0.6-1.5,0-2.1l344.4-344.3c0.6-0.6,1.5-0.6,2.1,0
						s0.6,1.5,0,2.1L360.5,507.2C360.2,507.5,359.8,507.6,359.4,507.6z"/>
				</g>
			</g>
			<g>
				<g>
					<path class="st4" d="M359.4,493.6c-0.4,0-0.8-0.1-1.1-0.4c-0.6-0.6-0.6-1.5,0-2.1l344.4-344.3c0.6-0.6,1.5-0.6,2.1,0
						s0.6,1.5,0,2.1L360.5,493.2C360.2,493.5,359.8,493.6,359.4,493.6z"/>
				</g>
			</g>
			<g>
				<g>
					<path class="st4" d="M359.4,479.6c-0.4,0-0.8-0.1-1.1-0.4c-0.6-0.6-0.6-1.5,0-2.1l344.4-344.3c0.6-0.6,1.5-0.6,2.1,0
						s0.6,1.5,0,2.1L360.5,479.2C360.2,479.5,359.8,479.6,359.4,479.6z"/>
				</g>
			</g>
			<g>
				<g>
					<path class="st4" d="M359.4,465.6c-0.4,0-0.8-0.1-1.1-0.4c-0.6-0.6-0.6-1.5,0-2.1l344.4-344.4c0.6-0.6,1.5-0.6,2.1,0
						c0.6,0.6,0.6,1.5,0,2.1L360.5,465.2C360.2,465.5,359.8,465.6,359.4,465.6z"/>
				</g>
			</g>
			<g>
				<g>
					<path class="st4" d="M359.4,451.6c-0.4,0-0.8-0.1-1.1-0.4c-0.6-0.6-0.6-1.5,0-2.1l344.4-344.4c0.6-0.6,1.5-0.6,2.1,0
						c0.6,0.6,0.6,1.5,0,2.1L360.5,451.2C360.2,451.5,359.8,451.6,359.4,451.6z"/>
				</g>
			</g>
			<g>
				<g>
					<path class="st4" d="M359.4,437.6c-0.4,0-0.8-0.1-1.1-0.4c-0.6-0.6-0.6-1.5,0-2.1L702.7,90.6c0.6-0.6,1.5-0.6,2.1,0
						c0.6,0.6,0.6,1.5,0,2.1L360.5,437.2C360.2,437.5,359.8,437.6,359.4,437.6z"/>
				</g>
			</g>
			<g>
				<g>
					<path class="st4" d="M359.4,423.6c-0.4,0-0.8-0.1-1.1-0.4c-0.6-0.6-0.6-1.5,0-2.1L702.7,76.6c0.6-0.6,1.5-0.6,2.1,0
						c0.6,0.6,0.6,1.5,0,2.1L360.5,423.2C360.2,423.5,359.8,423.6,359.4,423.6z"/>
				</g>
			</g>
			<g>
				<g>
					<path class="st4" d="M359.4,409.6c-0.4,0-0.8-0.1-1.1-0.4c-0.6-0.6-0.6-1.5,0-2.1L702.7,62.6c0.6-0.6,1.5-0.6,2.1,0
						c0.6,0.6,0.6,1.5,0,2.1L360.5,409.2C360.2,409.5,359.8,409.6,359.4,409.6z"/>
				</g>
			</g>
			<g>
				<g>
					<path class="st4" d="M359.4,395.6c-0.4,0-0.8-0.1-1.1-0.4c-0.6-0.6-0.6-1.5,0-2.1L702.7,48.6c0.6-0.6,1.5-0.6,2.1,0
						c0.6,0.6,0.6,1.5,0,2.1L360.5,395.2C360.2,395.5,359.8,395.6,359.4,395.6z"/>
				</g>
			</g>
			<g>
				<g>
					<path class="st4" d="M359.4,381.6c-0.4,0-0.8-0.1-1.1-0.4c-0.6-0.6-0.6-1.5,0-2.1L702.7,34.6c0.6-0.6,1.5-0.6,2.1,0
						c0.6,0.6,0.6,1.5,0,2.1L360.5,381.2C360.2,381.5,359.8,381.6,359.4,381.6z"/>
				</g>
			</g>
			<g>
				<g>
					<path class="st4" d="M359.4,367.6c-0.4,0-0.8-0.1-1.1-0.4c-0.6-0.6-0.6-1.5,0-2.1L702.7,20.6c0.6-0.6,1.5-0.6,2.1,0
						c0.6,0.6,0.6,1.5,0,2.1L360.5,367.2C360.2,367.5,359.8,367.6,359.4,367.6z"/>
				</g>
			</g>
			<g>
				<g>
					<path class="st4" d="M359.4,353.6c-0.4,0-0.8-0.1-1.1-0.4c-0.6-0.6-0.6-1.5,0-2.1L702.7,6.6c0.6-0.6,1.5-0.6,2.1,0
						c0.6,0.6,0.6,1.5,0,2.1L360.5,353.2C360.2,353.5,359.8,353.6,359.4,353.6z"/>
				</g>
			</g>
			<g>
				<g>
					<path class="st4" d="M359.4,339.6c-0.4,0-0.8-0.1-1.1-0.4c-0.6-0.6-0.6-1.5,0-2.1L671.1,24.1c0.6-0.6,1.5-0.6,2.1,0
						c0.6,0.6,0.6,1.5,0,2.1L360.5,339.2C360.2,339.5,359.8,339.6,359.4,339.6z"/>
				</g>
			</g>
			<g>
				<g>
					<path class="st4" d="M359.4,325.6c-0.4,0-0.8-0.1-1.1-0.4c-0.6-0.6-0.6-1.5,0-2.1L651.7,29.6c0.6-0.6,1.5-0.6,2.1,0
						c0.6,0.6,0.6,1.5,0,2.1L360.5,325.2C360.2,325.5,359.8,325.6,359.4,325.6z"/>
				</g>
			</g>
		</g>
	</g>
	<path id="XMLID_1_" class="st9" d="M664,679H388V283h276c9.9,0,18,7.8,18,17.7v360C682,670.7,673.9,679,664,679z"/>
	<rect id="XMLID_21_" x="388" y="283" class="st9" width="34" height="396"/>
	<rect id="XMLID_31_" x="388" y="397" class="st10" width="294" height="112"/>
	<g>
		<path class="st11" d="M519.2,431.4c0,2.1-0.4,3.8-1.2,5.1s-1.7,2.3-2.7,3.1c-1.5,1.2-3.5,1.7-6.2,1.7H498v-20.6h8.6
			c1.3,0,2.4,0.1,3.3,0.2s1.7,0.3,2.5,0.6s1.4,0.5,1.9,0.8s1,0.6,1.4,1c0.7,0.6,1.3,1.3,1.8,2s1,1.7,1.3,2.7
			C519.1,429.1,519.2,430.2,519.2,431.4z M512.9,431.2c0-1.7-0.3-3-1-3.9c-0.6-0.9-1.4-1.6-2.3-1.9s-1.8-0.5-2.7-0.5h-2.6v12.2h2.6
			c1.6,0,3-0.4,4.2-1.2S512.9,433.6,512.9,431.2z"/>
		<path class="st11" d="M545.1,431c0,1.9-0.4,3.7-1.3,5.3c-0.9,1.6-2.2,2.9-4,3.8s-3.9,1.4-6.4,1.4s-4.7-0.5-6.5-1.5
			s-3.1-2.3-3.9-3.9c-0.9-1.6-1.3-3.3-1.3-5.2c0-1.9,0.4-3.6,1.3-5.2c0.9-1.6,2.2-2.9,3.9-3.9c1.8-1,3.9-1.5,6.5-1.5
			c1.9,0,3.6,0.3,5.1,0.8s2.7,1.3,3.7,2.3s1.7,2.1,2.2,3.4S545.1,429.6,545.1,431z M538.8,431c0-0.8-0.1-1.5-0.3-2.1s-0.6-1.2-1-1.7
			c-0.5-0.5-1-0.8-1.7-1.1s-1.4-0.4-2.3-0.4c-1.7,0-3,0.5-3.9,1.5s-1.4,2.2-1.4,3.8s0.5,2.8,1.4,3.8c1,1,2.3,1.5,3.9,1.5
			c1.1,0,2.1-0.2,2.9-0.7s1.4-1.1,1.8-1.9C538.5,433,538.8,432.1,538.8,431z"/>
		<path class="st11" d="M566.9,425.8h-7.5v15.6h-6.2v-15.6h-7.5v-5H567L566.9,425.8L566.9,425.8z"/>
		<path class="st11" d="M517.5,464.4c-0.4,0.2-0.8,0.3-1.1,0.4s-0.6,0.2-0.9,0.3c-0.3,0.1-0.7,0.2-1.3,0.3c-0.9,0.2-1.9,0.4-2.8,0.5
			c-0.9,0.1-1.9,0.2-3,0.2c-2.1,0-4-0.4-5.8-1.1c-1.8-0.8-3.2-1.9-4.3-3.5c-1.1-1.6-1.6-3.6-1.6-5.9c0-1.5,0.3-3,0.8-4.4
			s1.4-2.6,2.5-3.5c0.9-0.7,1.9-1.3,2.8-1.7c1-0.4,1.9-0.6,2.8-0.8c0.9-0.1,1.9-0.2,3-0.2c1.8,0,3.3,0.1,4.5,0.4
			c1.2,0.3,2.5,0.6,3.9,1.1v4.9c-0.9-0.5-1.9-1-3-1.4c-1-0.4-2.3-0.5-3.9-0.5c-1.8,0-3.2,0.3-4.3,1c-1.1,0.7-1.8,1.5-2.2,2.4
			c-0.4,0.9-0.6,1.9-0.6,2.7c0,1,0.2,2,0.7,2.9s1.2,1.6,2.2,2.1s2.2,0.8,3.5,0.8c0.8,0,1.6-0.1,2.5-0.3v-2.4h-2.8v-4.1h8.2v9.8
			H517.5z"/>
		<path class="st11" d="M542.3,465.9h-6.7l-1.6-3.7c-0.6-1.3-1.1-2.3-1.6-2.9s-0.9-1-1.4-1.2s-1-0.3-1.7-0.3h-0.7v8h-6.2v-20.6H533
			c1.7,0,3.1,0.3,4.2,1c1.1,0.7,1.9,1.5,2.4,2.5s0.7,1.9,0.7,2.8c0,1-0.2,1.9-0.6,2.6c-0.4,0.7-0.8,1.2-1.3,1.6
			c-0.4,0.3-0.9,0.6-1.5,0.9c0.7,0.4,1.2,0.8,1.6,1.4s1,1.6,1.8,3.2L542.3,465.9z M533.9,451.8c0-1-0.3-1.6-0.9-2
			c-0.6-0.4-1.6-0.6-3-0.6h-1.3v5h1.3c1.5,0,2.6-0.2,3.1-0.5S533.9,452.7,533.9,451.8z"/>
		<path class="st11" d="M551.3,465.9h-6.2v-20.6h6.2V465.9z"/>
		<path class="st11" d="M577.7,455.9c0,2.1-0.4,3.8-1.2,5.1s-1.7,2.3-2.7,3.1c-1.5,1.2-3.5,1.7-6.2,1.7h-11.1v-20.6h8.6
			c1.3,0,2.4,0.1,3.3,0.2c0.9,0.1,1.7,0.3,2.5,0.6s1.4,0.5,1.9,0.8s1,0.6,1.4,1c0.7,0.6,1.3,1.3,1.8,2s1,1.7,1.3,2.7
			C577.5,453.6,577.7,454.7,577.7,455.9z M571.4,455.7c0-1.7-0.3-3-1-3.9c-0.6-0.9-1.4-1.6-2.3-1.9c-0.9-0.3-1.8-0.5-2.7-0.5h-2.6
			v12.2h2.6c1.6,0,3-0.4,4.2-1.2S571.4,458.1,571.4,455.7z"/>
		<path class="st11" d="M516.9,484.5c0,1.8-0.6,3.2-1.8,4.2c-1.2,1.1-2.9,1.6-5.1,1.6h-11.9v-20.6h9.9c1.3,0,2.4,0.1,3.4,0.4
			c1,0.2,1.7,0.6,2.3,1s1,0.9,1.3,1.5s0.4,1.2,0.4,1.9c0,0.8-0.1,1.4-0.4,2.1s-0.7,1.2-1.1,1.6s-0.9,0.7-1.3,0.9
			c1.4,0.6,2.5,1.3,3.2,2.1S516.9,483.2,516.9,484.5z M509.6,475.7c0-1-0.3-1.6-1-2s-1.7-0.5-3.1-0.5h-1.3v4.9h1.3
			c1.4,0,2.4-0.2,3.1-0.5C509.3,477.4,509.6,476.7,509.6,475.7z M510.6,484.3c0-1.8-1.3-2.6-3.8-2.6h-2.5v5.3h2.5
			C509.4,486.9,510.6,486,510.6,484.3z"/>
		<path class="st11" d="M542.9,480.1c0,1.9-0.4,3.7-1.3,5.3c-0.9,1.6-2.2,2.9-4,3.8s-3.9,1.4-6.4,1.4s-4.7-0.5-6.5-1.5
			s-3.1-2.3-3.9-3.9c-0.9-1.6-1.3-3.3-1.3-5.2c0-1.9,0.4-3.6,1.3-5.2c0.9-1.6,2.2-2.9,3.9-3.9c1.8-1,3.9-1.5,6.5-1.5
			c1.9,0,3.6,0.3,5.1,0.8s2.7,1.3,3.7,2.3s1.7,2.1,2.2,3.4S542.9,478.6,542.9,480.1z M536.5,480.1c0-0.8-0.1-1.5-0.3-2.1
			s-0.6-1.2-1-1.7c-0.5-0.5-1-0.8-1.7-1.1s-1.4-0.4-2.3-0.4c-1.7,0-3,0.5-3.9,1.5s-1.4,2.2-1.4,3.8s0.5,2.8,1.4,3.8
			c1,1,2.3,1.5,3.9,1.5c1.1,0,2.1-0.2,2.9-0.7s1.4-1.1,1.8-1.9C536.3,482,536.5,481.1,536.5,480.1z"/>
		<path class="st11" d="M568.7,480.1c0,1.9-0.4,3.7-1.3,5.3c-0.9,1.6-2.2,2.9-4,3.8s-3.9,1.4-6.4,1.4s-4.7-0.5-6.5-1.5
			s-3.1-2.3-3.9-3.9c-0.9-1.6-1.3-3.3-1.3-5.2c0-1.9,0.4-3.6,1.3-5.2c0.9-1.6,2.2-2.9,3.9-3.9c1.8-1,3.9-1.5,6.5-1.5
			c1.9,0,3.6,0.3,5.1,0.8s2.7,1.3,3.7,2.3s1.7,2.1,2.2,3.4S568.7,478.6,568.7,480.1z M562.4,480.1c0-0.8-0.1-1.5-0.3-2.1
			s-0.6-1.2-1-1.7c-0.5-0.5-1-0.8-1.7-1.1s-1.4-0.4-2.3-0.4c-1.7,0-3,0.5-3.9,1.5s-1.4,2.2-1.4,3.8s0.5,2.8,1.4,3.8
			c1,1,2.3,1.5,3.9,1.5c1.1,0,2.1-0.2,2.9-0.7s1.4-1.1,1.8-1.9C562.2,482,562.4,481.1,562.4,480.1z"/>
		<path class="st11" d="M594.2,490.4h-7.6l-7.9-9.6v9.6h-6.2v-20.6h6.2v9.2l7.5-9.2h6.7l-7.7,9.6L594.2,490.4z"/>
	</g>
	<line id="XMLID_53_" class="st12" x1="422" y1="397" x2="422" y2="509"/>
	<rect id="XMLID_51_" x="388" y="397" class="st13" width="17" height="112"/>
	<rect id="XMLID_56_" x="624" y="397" class="st14" width="17" height="112"/>
	<rect id="XMLID_3_" x="388" y="397" class="st9" width="294" height="112"/>
	<path id="XMLID_4_" class="st15" d="M624.2,687h-12.3c-3.2,0-5.8-2.6-5.8-5.8V280.8c0-3.2,2.6-5.8,5.8-5.8h12.3
		c3.2,0,5.8,2.6,5.8,5.8v400.3C630,684.4,627.4,687,624.2,687z"/>
	<path id="XMLID_2_" class="st9" d="M624.2,687h-12.3c-3.2,0-5.8-2.6-5.8-5.8V280.8c0-3.2,2.6-5.8,5.8-5.8h12.3
		c3.2,0,5.8,2.6,5.8,5.8v400.3C630,684.4,627.4,687,624.2,687z"/>
	<polygon id="XMLID_20_" class="st16" points="449,724.7 419,708 419,679 449,679 	"/>
	<rect id="XMLID_60_" x="419" y="679" class="st17" width="30" height="11.3"/>
	<polygon id="XMLID_5_" class="st9" points="449,724.7 419,708 419,679 449,679 	"/>
	<rect id="XMLID_22_" x="290" y="362" class="st18" width="32" height="151"/>
	<rect id="XMLID_32_" x="290" y="362" class="st18" width="32" height="151"/>
	<rect id="XMLID_33_" x="290" y="362" class="st19" width="10" height="151"/>
	<rect id="XMLID_35_" x="313" y="362" class="st20" width="9" height="151"/>
	<rect id="XMLID_6_" x="290" y="362" class="st9" width="32" height="151"/>
	<path id="XMLID_23_" class="st21" d="M322.4,615c-10.8,0-21.7,0-32.5,0c-2.1-22-2.1-45,0-68c10.8,0,21.7,0,32.5,0
		C324.5,570,324.5,593,322.4,615z"/>
	<path id="XMLID_25_" class="st18" d="M322.4,615c-10.8,0-21.7,0-32.5,0c-2.1-22-2.1-45,0-68c10.8,0,21.7,0,32.5,0
		C324.5,570,324.5,593,322.4,615z"/>
	<path id="XMLID_59_" class="st20" d="M322.4,547c-2.6,0-5.2,0-7.8,0c2.1,23,2.1,46,0,68c2.6,0,5.2,0,7.8,0
		C324.5,593,324.5,570,322.4,547z"/>
	<path id="XMLID_37_" class="st22" d="M301.4,614c-1.6,0-3.1,0-4.7,0c-2.1-21.7-2.1-44.3-0.1-67c1.6,0,3.2,0,4.8,0
		C299.4,569.7,299.4,592.3,301.4,614z"/>
	<path id="XMLID_10_" class="st9" d="M322.4,615c-10.8,0-21.7,0-32.5,0c-2.1-22-2.1-45,0-68c10.8,0,21.7,0,32.5,0
		C324.5,570,324.5,593,322.4,615z"/>
	<rect id="XMLID_8_" x="288" y="571" class="st9" width="36" height="21"/>
	<path id="XMLID_9_" class="st9" d="M322.4,547c-10.8,0-21.7,0-32.5,0c6.7-10,6.7-23,0-34c10.8,0,21.7,0,32.5,0
		C315.7,524,315.7,537,322.4,547z"/>
	<path id="XMLID_26_" class="st23" d="M310.3,662c5.4-16,11.9-31,12.1-47h-32.5c0.2,16,6.7,31,12.1,47H310.3z"/>
	<path id="XMLID_39_" class="st24" d="M322.4,615c0,0.3,0,0.7,0,1H301c0.1,15.7,2.9,30.7,6.2,46H302c-5.4-16-11.9-31-12.1-47H322.4z
		"/>
	<path id="XMLID_14_" class="st9" d="M310.3,662c5.4-16,11.9-31,12.1-47h-32.5c0.2,16,6.7,31,12.1,47H310.3z"/>
	<rect id="XMLID_11_" x="302" y="662" class="st9" width="8" height="6"/>
	<line id="XMLID_13_" class="st9" x1="306" y1="669" x2="306" y2="682"/>
	<rect id="XMLID_12_" x="294" y="340" class="st9" width="24" height="22"/>
	<rect id="XMLID_29_" x="294" y="340" class="st4" width="24" height="22"/>
	<path id="XMLID_30_" class="st23" d="M315,340h-18v-25.7c0-3.5,3.2-6.3,6.7-6.3h5c3.5,0,6.3,2.8,6.3,6.3V340z"/>
	<path id="XMLID_16_" class="st9" d="M315,340h-18v-25.7c0-3.5,3.2-6.3,6.7-6.3h5c3.5,0,6.3,2.8,6.3,6.3V340z"/>
	<rect id="XMLID_27_" x="302" y="376" class="st23" width="31" height="18"/>
	<rect id="XMLID_15_" x="302" y="376" class="st9" width="31" height="18"/>
	<polygon id="XMLID_28_" class="st23" points="333,455.3 322,440.8 322,394 333,394 	"/>
	<polygon id="XMLID_17_" class="st9" points="333,455.3 322,440.8 322,394 333,394 	"/>
	<path id="XMLID_52_" class="st25" d="M422,397"/>
</g>
</svg>
